<svg width="64" height="64" viewBox="0 0 64 64" fill="none" xmlns="http://www.w3.org/2000/svg">
<g id="carbon:game-console">
<path id="Vector" d="M15.0198 51.9996C14.0472 52.0008 13.0788 51.873 12.1398 51.6196C9.32158 50.8159 6.93064 48.9397 5.47991 46.3934C4.02917 43.8472 3.63422 40.8337 4.37978 37.9996L9.03978 20.3196C9.40269 18.8887 10.0479 17.5448 10.9374 16.3668C11.8269 15.1887 12.9429 14.2003 14.2198 13.4596C15.463 12.7395 16.8368 12.2732 18.2616 12.0879C19.6863 11.9025 21.1336 12.0016 22.5198 12.3796C23.9933 12.7888 25.3657 13.4996 26.55 14.467C27.7343 15.4345 28.7048 16.6374 29.3998 17.9996H34.5998C35.2928 16.636 36.2626 15.4318 37.4472 14.4642C38.6318 13.4965 40.0053 12.7865 41.4798 12.3796C42.8659 12.0016 44.3133 11.9025 45.738 12.0879C47.1627 12.2732 48.5365 12.7395 49.7798 13.4596C51.0504 14.1984 52.1623 15.1814 53.0513 16.3519C53.9404 17.5224 54.589 18.8573 54.9598 20.2796L59.6198 37.9996C60.3765 40.842 59.9847 43.8679 58.5289 46.4239C57.0732 48.9798 54.6705 50.8604 51.8398 51.6596C50.4536 52.0376 49.0063 52.1367 47.5816 51.9513C46.1568 51.7659 44.783 51.2997 43.5398 50.5796C42.267 49.8434 41.1535 48.8612 40.2642 47.6903C39.3749 46.5194 38.7275 45.1832 38.3598 43.7596L37.9998 41.9996H25.9998L25.5398 43.7196C25.1721 45.1432 24.5247 46.4794 23.6353 47.6503C22.746 48.8212 21.6325 49.8034 20.3598 50.5396C18.7347 51.4769 16.8956 51.9797 15.0198 51.9996ZM19.6598 15.9996C18.453 16.0046 17.268 16.3215 16.2198 16.9196C14.5775 17.8832 13.3837 19.458 12.8998 21.2996L8.23978 38.9796C7.75215 40.8011 7.99854 42.7412 8.92601 44.3829C9.85348 46.0247 11.388 47.2371 13.1998 47.7596C14.0748 47.9983 14.9884 48.0611 15.8879 47.9443C16.7873 47.8276 17.6547 47.5337 18.4398 47.0796C19.2572 46.6077 19.972 45.9771 20.5421 45.2249C21.1123 44.4727 21.5263 43.6141 21.7598 42.6996L22.9998 37.9996H40.9998L42.2198 42.6996C42.4574 43.6124 42.873 44.4692 43.4428 45.2208C44.0125 45.9725 44.7252 46.6042 45.5398 47.0796C46.3287 47.5333 47.1995 47.8268 48.102 47.9435C49.0046 48.0602 49.9214 47.9977 50.7998 47.7596C52.6137 47.242 54.1502 46.0294 55.0752 44.3854C56.0001 42.7414 56.239 40.7987 55.7398 38.9796L51.0798 21.2996C50.8476 20.3872 50.4363 19.5301 49.8697 18.7781C49.3032 18.0262 48.5928 17.3944 47.7798 16.9196C46.9908 16.4659 46.1201 16.1723 45.2175 16.0557C44.3149 15.939 43.3982 16.0015 42.5198 16.2396C41.4335 16.5492 40.4367 17.1136 39.6123 17.8858C38.7879 18.6581 38.1597 19.6158 37.7798 20.6796L37.2998 21.9996H26.6998L26.2198 20.6796C25.8365 19.6144 25.2047 18.656 24.3769 17.8838C23.549 17.1116 22.549 16.548 21.4598 16.2396C20.8727 16.0818 20.2677 16.0011 19.6598 15.9996Z" fill="black"/>
<path id="Vector_2" d="M20 32C19.2089 32 18.4355 31.7654 17.7777 31.3259C17.1199 30.8864 16.6072 30.2616 16.3045 29.5307C16.0017 28.7998 15.9225 27.9956 16.0769 27.2196C16.2312 26.4437 16.6122 25.731 17.1716 25.1716C17.731 24.6122 18.4437 24.2312 19.2196 24.0769C19.9956 23.9225 20.7998 24.0017 21.5307 24.3045C22.2616 24.6072 22.8864 25.1199 23.3259 25.7777C23.7654 26.4355 24 27.2089 24 28C24 29.0609 23.5786 30.0783 22.8284 30.8284C22.0783 31.5786 21.0609 32 20 32Z" fill="black"/>
<path id="Vector_3" d="M44 26C45.1046 26 46 25.1046 46 24C46 22.8954 45.1046 22 44 22C42.8954 22 42 22.8954 42 24C42 25.1046 42.8954 26 44 26Z" fill="black"/>
<path id="Vector_4" d="M44 34C45.1046 34 46 33.1046 46 32C46 30.8954 45.1046 30 44 30C42.8954 30 42 30.8954 42 32C42 33.1046 42.8954 34 44 34Z" fill="black"/>
<path id="Vector_5" d="M40 30C41.1046 30 42 29.1046 42 28C42 26.8954 41.1046 26 40 26C38.8954 26 38 26.8954 38 28C38 29.1046 38.8954 30 40 30Z" fill="black"/>
<path id="Vector_6" d="M48 30C49.1046 30 50 29.1046 50 28C50 26.8954 49.1046 26 48 26C46.8954 26 46 26.8954 46 28C46 29.1046 46.8954 30 48 30Z" fill="black"/>
</g>
</svg>
