<svg xmlns="http://www.w3.org/2000/svg" viewBox="0 0 24 24" id="washingmachine">
  <path d="M16,21.5a.5.5,0,0,0,.5.5h2a.5.5,0,0,0,0-1h-2A.5.5,0,0,0,16,21.5ZM17.5,2A1.5,1.5,0,1,0,19,3.5,1.5,1.5,0,0,0,17.5,2Zm0,2a.5.5,0,1,1,.5-.5A.5.5,0,0,1,17.5,4ZM12,21a6,6,0,1,0-6-6A6,6,0,0,0,12,21Zm0-11a5,5,0,1,1-5,5A5,5,0,0,1,12,10ZM18.5,0H5.5A2.5,2.5,0,0,0,3,2.5v19A2.5,2.5,0,0,0,5.5,24h13A2.5,2.5,0,0,0,21,21.5V2.5A2.5,2.5,0,0,0,18.5,0ZM6,1h5V3.5a.5.5,0,0,1-.5.5h-4A.5.5,0,0,1,6,3.5ZM20,21.5A1.5,1.5,0,0,1,18.5,23H5.5A1.5,1.5,0,0,1,4,21.5V7H20ZM20,6H4V2.5A1.5,1.5,0,0,1,5,1.09V3.5A1.5,1.5,0,0,0,6.5,5h4A1.5,1.5,0,0,0,12,3.5V1h6.5A1.5,1.5,0,0,1,20,2.5ZM14.5,4a.5.5,0,1,0,.5.5A.5.5,0,0,0,14.5,4ZM12,19a4,4,0,1,0-4-4A4,4,0,0,0,12,19Zm0-7a3,3,0,0,1,2.95,2.5H14.5a.5.5,0,0,0,0,1h.45A3,3,0,1,1,12,12Z" fill="#000000" class="color000000 svgShape"></path>
</svg>
